<svg xmlns="http://www.w3.org/2000/svg" width="152.094" height="47.12" viewBox="0 0 152.094 47.12"><g transform="translate(-149 -374.448)"><g transform="translate(126 363)"><g transform="translate(23 11.448)"><path d="M9.424,0H29.45a9.424,9.424,0,0,1,9.424,9.424V37.7a9.424,9.424,0,0,1-9.424,9.42H9.424A9.424,9.424,0,0,1,0,37.7V9.424A9.424,9.424,0,0,1,9.424,0Z" fill="#fff"/><path d="M9.424,3A6.431,6.431,0,0,0,3,9.424V37.7a6.431,6.431,0,0,0,6.424,6.42H29.45a6.431,6.431,0,0,0,6.424-6.42V9.424A6.431,6.431,0,0,0,29.45,3H9.424m0-3H29.45a9.424,9.424,0,0,1,9.424,9.424V37.7a9.424,9.424,0,0,1-9.424,9.42H9.424A9.424,9.424,0,0,1,0,37.7V9.424A9.424,9.424,0,0,1,9.424,0Z" fill="#505050"/><g transform="translate(9.766 21.072)"><circle cx="2.612" cy="2.612" r="2.612" transform="translate(0 0)" fill="#505050"/><circle cx="2.612" cy="2.612" r="2.612" transform="translate(14.8 0)" fill="#505050"/><g transform="translate(1.558 8.121)"><path d="M128.6,1794.66h16.989s1,9.125-8.437,9.051S128.6,1794.66,128.6,1794.66Z" transform="translate(-128.58 -1794.658)" fill="#505050"/><path d="M0,0H13.058a2.176,2.176,0,0,1-2.176,2.176H2.176A2.176,2.176,0,0,1,0,0Z" transform="translate(1.991)" fill="#878787"/></g><path d="M5.767,4.766A8.939,8.939,0,0,1,0,2.984,6.275,6.275,0,0,1,5.647,0a6.2,6.2,0,0,1,5.731,3.156,8.687,8.687,0,0,1-5.5,1.611Z" transform="translate(4.365 12.406)" fill="#686868"/></g></g></g><path d="M2.55,0,2.516-24.14H18.768l-.034,4.114L7.14-20.094l.068,6.29,9.554.034L16.8-10,7.14-10.03,7.208,0ZM21.556-24.82h4.556V-5.651A2.45,2.45,0,0,0,26.52-4a1.479,1.479,0,0,0,1.122.426,4.892,4.892,0,0,0,1.122-.136,5.376,5.376,0,0,0,1.02-.34L30.4-.578A8.811,8.811,0,0,1,28.254.1a11.686,11.686,0,0,1-2.21.238A4.555,4.555,0,0,1,22.729-.8a4.337,4.337,0,0,1-1.173-3.256ZM31.144-5.2a4.877,4.877,0,0,1,.969-3.007,6.2,6.2,0,0,1,2.7-2,10.489,10.489,0,0,1,3.978-.705,15.643,15.643,0,0,1,2.278.17,7.807,7.807,0,0,1,2.006.544v-.948a3.278,3.278,0,0,0-1-2.571,4.322,4.322,0,0,0-2.975-.9,7.7,7.7,0,0,0-2.788.51,14.1,14.1,0,0,0-2.788,1.5l-1.462-2.992a14.506,14.506,0,0,1,3.621-1.734,13,13,0,0,1,3.893-.578,8.66,8.66,0,0,1,5.933,1.877,6.777,6.777,0,0,1,2.125,5.363v5.6a1.562,1.562,0,0,0,.255,1.006,1.231,1.231,0,0,0,.833.369V0q-.612.1-1.1.17a6.263,6.263,0,0,1-.833.068,3.034,3.034,0,0,1-2.057-.612,2.6,2.6,0,0,1-.867-1.5l-.1-.918a7.789,7.789,0,0,1-2.89,2.312A8.224,8.224,0,0,1,37.332.34a6.876,6.876,0,0,1-3.179-.722,5.547,5.547,0,0,1-2.21-1.982A5.188,5.188,0,0,1,31.144-5.2Zm11.084.885a4.685,4.685,0,0,0,.612-.8,1.445,1.445,0,0,0,.238-.729V-7.6a9.366,9.366,0,0,0-1.768-.514,9.6,9.6,0,0,0-1.8-.182A5.21,5.21,0,0,0,36.6-7.55a2.266,2.266,0,0,0-1.139,1.973,2.334,2.334,0,0,0,.374,1.26,2.689,2.689,0,0,0,1.088.961,3.7,3.7,0,0,0,1.7.365,5.521,5.521,0,0,0,2.006-.381A4.985,4.985,0,0,0,42.228-4.318ZM58.446.34a12.729,12.729,0,0,1-4.352-.748,9.784,9.784,0,0,1-3.57-2.21l1.632-2.958a12.2,12.2,0,0,0,3.145,1.9,8.075,8.075,0,0,0,2.975.612A4.253,4.253,0,0,0,60.4-3.519,1.49,1.49,0,0,0,61.2-4.9a1.194,1.194,0,0,0-.442-.99,4.058,4.058,0,0,0-1.275-.621q-.833-.269-2.023-.6a31.487,31.487,0,0,1-3.3-1.242A4.849,4.849,0,0,1,52.173-9.88a3.958,3.958,0,0,1-.663-2.366,5.025,5.025,0,0,1,.9-3,5.916,5.916,0,0,1,2.516-1.963,9.419,9.419,0,0,1,3.791-.7,10.831,10.831,0,0,1,3.6.595A8.571,8.571,0,0,1,65.416-15.4l-1.836,2.89A11.024,11.024,0,0,0,61-14.059a6.592,6.592,0,0,0-2.482-.493,5.206,5.206,0,0,0-1.343.167,2.242,2.242,0,0,0-1.02.552,1.458,1.458,0,0,0-.391,1.088,1.322,1.322,0,0,0,.357.987,3.037,3.037,0,0,0,1.088.619q.731.268,1.785.6A29.58,29.58,0,0,1,62.611-9.3a5.709,5.709,0,0,1,2.227,1.556,3.9,3.9,0,0,1,.748,2.527,4.84,4.84,0,0,1-1.938,4.083A8.392,8.392,0,0,1,58.446.34ZM85.238,0H80.682V-9.852a4.851,4.851,0,0,0-.8-3.049,2.649,2.649,0,0,0-2.193-1.005,3.852,3.852,0,0,0-1.734.465,5.628,5.628,0,0,0-1.649,1.278,5.1,5.1,0,0,0-1.071,1.876V0H68.68V-24.82h4.556v10.466a6.982,6.982,0,0,1,2.686-2.622,7.524,7.524,0,0,1,3.706-.941,5.914,5.914,0,0,1,2.822.588,4.424,4.424,0,0,1,1.7,1.58A6.563,6.563,0,0,1,85-13.531a13.3,13.3,0,0,1,.238,2.538ZM89.25,3.468q.612.136,1.139.238a4.857,4.857,0,0,0,.9.1,1.727,1.727,0,0,0,1.071-.321,3.215,3.215,0,0,0,.833-1.142,15.14,15.14,0,0,0,.85-2.3l-7.038-17.7h4.726L96.526-4.577l4.216-13.069h4.352L97.614,3.562a6.482,6.482,0,0,1-1.241,2.144A5.9,5.9,0,0,1,94.3,7.227a6.677,6.677,0,0,1-2.771.559A7.038,7.038,0,0,1,90.44,7.7a8.178,8.178,0,0,1-1.19-.289Z" transform="translate(196 410)" fill="#505050"/></g></svg>